{
    "asset" : {
        "generator" : "Khronos glTF Blender I/O v0.9.36",
        "version" : "2.0"
    },
    "scene" : 0,
    "scenes" : [
        {
            "name" : "Scene",
            "nodes" : [
                2
            ]
        }
    ],
    "nodes" : [
        {
            "mesh" : 0,
            "name" : "Cube",
            "rotation" : [
                -0.7071068286895752,
                0,
                0,
                0.7071067094802856
            ],
            "translation" : [
                0,
                -2.070485830307007,
                1.206681489944458
            ]
        },
        {
            "children" : [
                0
            ],
            "mesh" : 1,
            "name" : "Cube.002",
            "translation" : [
                0,
                0,
                -2.5926101207733154
            ]
        },
        {
            "children" : [
                1
            ],
            "mesh" : 2,
            "name" : "Cube.001",
            "rotation" : [
                0.7071068286895752,
                0,
                0,
                0.7071067094802856
            ]
        }
    ],
    "materials" : [
        {
            "doubleSided" : true,
            "name" : "Mat1.001",
            "pbrMetallicRoughness" : {
                "baseColorFactor" : [
                    0.8000000715255737,
                    0,
                    0.0007442931528203189,
                    1
                ],
                "metallicFactor" : 0,
                "roughnessFactor" : 0.5
            }
        },
        {
            "doubleSided" : true,
            "name" : "Mat2.001",
            "pbrMetallicRoughness" : {
                "baseColorFactor" : [
                    0,
                    0.8000000715255737,
                    0.005857724230736494,
                    1
                ],
                "metallicFactor" : 0,
                "roughnessFactor" : 0.5
            }
        },
        {
            "doubleSided" : true,
            "name" : "Mat3.001",
            "pbrMetallicRoughness" : {
                "baseColorFactor" : [
                    0.007272819057106972,
                    0.0036621124017983675,
                    0.8000000715255737,
                    1
                ],
                "metallicFactor" : 0,
                "roughnessFactor" : 0.5
            }
        },
        {
            "doubleSided" : true,
            "name" : "Mat4.001",
            "pbrMetallicRoughness" : {
                "baseColorFactor" : [
                    0.651328444480896,
                    0.8000000715255737,
                    0,
                    1
                ],
                "metallicFactor" : 0,
                "roughnessFactor" : 0.5
            }
        },
        {
            "doubleSided" : true,
            "name" : "Mat5.001",
            "pbrMetallicRoughness" : {
                "baseColorFactor" : [
                    0.7969138026237488,
                    0.8000000715255737,
                    0.7470895051956177,
                    1
                ],
                "metallicFactor" : 0,
                "roughnessFactor" : 0.5
            }
        },
        {
            "doubleSided" : true,
            "name" : "Mat6.001",
            "pbrMetallicRoughness" : {
                "baseColorFactor" : [
                    0.3818003833293915,
                    4.3664625991368666e-05,
                    0.8000000715255737,
                    1
                ],
                "metallicFactor" : 0,
                "roughnessFactor" : 0.5
            }
        },
        {
            "doubleSided" : true,
            "name" : "Mat1",
            "pbrMetallicRoughness" : {
                "baseColorFactor" : [
                    0.8000000715255737,
                    0,
                    0.0007442931528203189,
                    1
                ],
                "metallicFactor" : 0,
                "roughnessFactor" : 0.5
            }
        },
        {
            "doubleSided" : true,
            "name" : "Mat2",
            "pbrMetallicRoughness" : {
                "baseColorFactor" : [
                    0,
                    0.8000000715255737,
                    0.005857724230736494,
                    1
                ],
                "metallicFactor" : 0,
                "roughnessFactor" : 0.5
            }
        },
        {
            "doubleSided" : true,
            "name" : "Mat3",
            "pbrMetallicRoughness" : {
                "baseColorFactor" : [
                    0.007272819057106972,
                    0.0036621124017983675,
                    0.8000000715255737,
                    1
                ],
                "metallicFactor" : 0,
                "roughnessFactor" : 0.5
            }
        },
        {
            "doubleSided" : true,
            "name" : "Mat4",
            "pbrMetallicRoughness" : {
                "baseColorFactor" : [
                    0.651328444480896,
                    0.8000000715255737,
                    0,
                    1
                ],
                "metallicFactor" : 0,
                "roughnessFactor" : 0.5
            }
        },
        {
            "doubleSided" : true,
            "name" : "Mat5",
            "pbrMetallicRoughness" : {
                "baseColorFactor" : [
                    0.7969138026237488,
                    0.8000000715255737,
                    0.7470895051956177,
                    1
                ],
                "metallicFactor" : 0,
                "roughnessFactor" : 0.5
            }
        },
        {
            "doubleSided" : true,
            "name" : "Mat6",
            "pbrMetallicRoughness" : {
                "baseColorFactor" : [
                    0.3818003833293915,
                    4.3664625991368666e-05,
                    0.8000000715255737,
                    1
                ],
                "metallicFactor" : 0,
                "roughnessFactor" : 0.5
            }
        }
    ],
    "meshes" : [
        {
            "name" : "Cube.003",
            "primitives" : [
                {
                    "attributes" : {
                        "POSITION" : 0,
                        "NORMAL" : 1,
                        "TEXCOORD_0" : 2
                    },
                    "indices" : 3
                }
            ]
        },
        {
            "name" : "Cube.002",
            "primitives" : [
                {
                    "attributes" : {
                        "POSITION" : 4,
                        "NORMAL" : 5,
                        "TEXCOORD_0" : 6
                    },
                    "indices" : 7,
                    "material" : 0
                },
                {
                    "attributes" : {
                        "POSITION" : 8,
                        "NORMAL" : 9,
                        "TEXCOORD_0" : 10
                    },
                    "indices" : 7,
                    "material" : 1
                },
                {
                    "attributes" : {
                        "POSITION" : 11,
                        "NORMAL" : 12,
                        "TEXCOORD_0" : 13
                    },
                    "indices" : 7,
                    "material" : 2
                },
                {
                    "attributes" : {
                        "POSITION" : 14,
                        "NORMAL" : 15,
                        "TEXCOORD_0" : 16
                    },
                    "indices" : 7,
                    "material" : 3
                },
                {
                    "attributes" : {
                        "POSITION" : 17,
                        "NORMAL" : 18,
                        "TEXCOORD_0" : 19
                    },
                    "indices" : 7,
                    "material" : 4
                },
                {
                    "attributes" : {
                        "POSITION" : 20,
                        "NORMAL" : 21,
                        "TEXCOORD_0" : 22
                    },
                    "indices" : 7,
                    "material" : 5
                }
            ]
        },
        {
            "name" : "Cube.001",
            "primitives" : [
                {
                    "attributes" : {
                        "POSITION" : 23,
                        "NORMAL" : 24,
                        "TEXCOORD_0" : 25
                    },
                    "indices" : 7,
                    "material" : 6
                },
                {
                    "attributes" : {
                        "POSITION" : 26,
                        "NORMAL" : 27,
                        "TEXCOORD_0" : 28
                    },
                    "indices" : 7,
                    "material" : 7
                },
                {
                    "attributes" : {
                        "POSITION" : 29,
                        "NORMAL" : 30,
                        "TEXCOORD_0" : 31
                    },
                    "indices" : 7,
                    "material" : 8
                },
                {
                    "attributes" : {
                        "POSITION" : 32,
                        "NORMAL" : 33,
                        "TEXCOORD_0" : 34
                    },
                    "indices" : 7,
                    "material" : 9
                },
                {
                    "attributes" : {
                        "POSITION" : 35,
                        "NORMAL" : 36,
                        "TEXCOORD_0" : 37
                    },
                    "indices" : 7,
                    "material" : 10
                },
                {
                    "attributes" : {
                        "POSITION" : 38,
                        "NORMAL" : 39,
                        "TEXCOORD_0" : 40
                    },
                    "indices" : 7,
                    "material" : 11
                }
            ]
        }
    ],
    "accessors" : [
        {
            "bufferView" : 0,
            "componentType" : 5126,
            "count" : 24,
            "max" : [
                1,
                1,
                1
            ],
            "min" : [
                -1,
                -1,
                -1
            ],
            "type" : "VEC3"
        },
        {
            "bufferView" : 1,
            "componentType" : 5126,
            "count" : 24,
            "type" : "VEC3"
        },
        {
            "bufferView" : 2,
            "componentType" : 5126,
            "count" : 24,
            "type" : "VEC2"
        },
        {
            "bufferView" : 3,
            "componentType" : 5123,
            "count" : 36,
            "type" : "SCALAR"
        },
        {
            "bufferView" : 4,
            "componentType" : 5126,
            "count" : 4,
            "max" : [
                -1,
                1,
                1
            ],
            "min" : [
                -1,
                -1,
                -1
            ],
            "type" : "VEC3"
        },
        {
            "bufferView" : 5,
            "componentType" : 5126,
            "count" : 4,
            "type" : "VEC3"
        },
        {
            "bufferView" : 6,
            "componentType" : 5126,
            "count" : 4,
            "type" : "VEC2"
        },
        {
            "bufferView" : 7,
            "componentType" : 5123,
            "count" : 6,
            "type" : "SCALAR"
        },
        {
            "bufferView" : 8,
            "componentType" : 5126,
            "count" : 4,
            "max" : [
                1,
                1,
                1
            ],
            "min" : [
                1,
                -1,
                -1
            ],
            "type" : "VEC3"
        },
        {
            "bufferView" : 9,
            "componentType" : 5126,
            "count" : 4,
            "type" : "VEC3"
        },
        {
            "bufferView" : 10,
            "componentType" : 5126,
            "count" : 4,
            "type" : "VEC2"
        },
        {
            "bufferView" : 11,
            "componentType" : 5126,
            "count" : 4,
            "max" : [
                1,
                -1,
                1
            ],
            "min" : [
                -1,
                -1,
                -1
            ],
            "type" : "VEC3"
        },
        {
            "bufferView" : 12,
            "componentType" : 5126,
            "count" : 4,
            "type" : "VEC3"
        },
        {
            "bufferView" : 13,
            "componentType" : 5126,
            "count" : 4,
            "type" : "VEC2"
        },
        {
            "bufferView" : 14,
            "componentType" : 5126,
            "count" : 4,
            "max" : [
                1,
                1,
                1
            ],
            "min" : [
                -1,
                1,
                -1
            ],
            "type" : "VEC3"
        },
        {
            "bufferView" : 15,
            "componentType" : 5126,
            "count" : 4,
            "type" : "VEC3"
        },
        {
            "bufferView" : 16,
            "componentType" : 5126,
            "count" : 4,
            "type" : "VEC2"
        },
        {
            "bufferView" : 17,
            "componentType" : 5126,
            "count" : 4,
            "max" : [
                1,
                1,
                1
            ],
            "min" : [
                -1,
                -1,
                1
            ],
            "type" : "VEC3"
        },
        {
            "bufferView" : 18,
            "componentType" : 5126,
            "count" : 4,
            "type" : "VEC3"
        },
        {
            "bufferView" : 19,
            "componentType" : 5126,
            "count" : 4,
            "type" : "VEC2"
        },
        {
            "bufferView" : 20,
            "componentType" : 5126,
            "count" : 4,
            "max" : [
                1,
                1,
                -1
            ],
            "min" : [
                -1,
                -1,
                -1
            ],
            "type" : "VEC3"
        },
        {
            "bufferView" : 21,
            "componentType" : 5126,
            "count" : 4,
            "type" : "VEC3"
        },
        {
            "bufferView" : 22,
            "componentType" : 5126,
            "count" : 4,
            "type" : "VEC2"
        },
        {
            "bufferView" : 23,
            "componentType" : 5126,
            "count" : 4,
            "max" : [
                -1,
                1,
                1
            ],
            "min" : [
                -1,
                -1,
                -1
            ],
            "type" : "VEC3"
        },
        {
            "bufferView" : 24,
            "componentType" : 5126,
            "count" : 4,
            "type" : "VEC3"
        },
        {
            "bufferView" : 25,
            "componentType" : 5126,
            "count" : 4,
            "type" : "VEC2"
        },
        {
            "bufferView" : 26,
            "componentType" : 5126,
            "count" : 4,
            "max" : [
                1,
                1,
                1
            ],
            "min" : [
                1,
                -1,
                -1
            ],
            "type" : "VEC3"
        },
        {
            "bufferView" : 27,
            "componentType" : 5126,
            "count" : 4,
            "type" : "VEC3"
        },
        {
            "bufferView" : 28,
            "componentType" : 5126,
            "count" : 4,
            "type" : "VEC2"
        },
        {
            "bufferView" : 29,
            "componentType" : 5126,
            "count" : 4,
            "max" : [
                1,
                -1,
                1
            ],
            "min" : [
                -1,
                -1,
                -1
            ],
            "type" : "VEC3"
        },
        {
            "bufferView" : 30,
            "componentType" : 5126,
            "count" : 4,
            "type" : "VEC3"
        },
        {
            "bufferView" : 31,
            "componentType" : 5126,
            "count" : 4,
            "type" : "VEC2"
        },
        {
            "bufferView" : 32,
            "componentType" : 5126,
            "count" : 4,
            "max" : [
                1,
                1,
                1
            ],
            "min" : [
                -1,
                1,
                -1
            ],
            "type" : "VEC3"
        },
        {
            "bufferView" : 33,
            "componentType" : 5126,
            "count" : 4,
            "type" : "VEC3"
        },
        {
            "bufferView" : 34,
            "componentType" : 5126,
            "count" : 4,
            "type" : "VEC2"
        },
        {
            "bufferView" : 35,
            "componentType" : 5126,
            "count" : 4,
            "max" : [
                1,
                1,
                1
            ],
            "min" : [
                -1,
                -1,
                1
            ],
            "type" : "VEC3"
        },
        {
            "bufferView" : 36,
            "componentType" : 5126,
            "count" : 4,
            "type" : "VEC3"
        },
        {
            "bufferView" : 37,
            "componentType" : 5126,
            "count" : 4,
            "type" : "VEC2"
        },
        {
            "bufferView" : 38,
            "componentType" : 5126,
            "count" : 4,
            "max" : [
                1,
                1,
                -1
            ],
            "min" : [
                -1,
                -1,
                -1
            ],
            "type" : "VEC3"
        },
        {
            "bufferView" : 39,
            "componentType" : 5126,
            "count" : 4,
            "type" : "VEC3"
        },
        {
            "bufferView" : 40,
            "componentType" : 5126,
            "count" : 4,
            "type" : "VEC2"
        }
    ],
    "bufferViews" : [
        {
            "buffer" : 0,
            "byteLength" : 288,
            "byteOffset" : 0
        },
        {
            "buffer" : 0,
            "byteLength" : 288,
            "byteOffset" : 288
        },
        {
            "buffer" : 0,
            "byteLength" : 192,
            "byteOffset" : 576
        },
        {
            "buffer" : 0,
            "byteLength" : 72,
            "byteOffset" : 768
        },
        {
            "buffer" : 0,
            "byteLength" : 48,
            "byteOffset" : 840
        },
        {
            "buffer" : 0,
            "byteLength" : 48,
            "byteOffset" : 888
        },
        {
            "buffer" : 0,
            "byteLength" : 32,
            "byteOffset" : 936
        },
        {
            "buffer" : 0,
            "byteLength" : 12,
            "byteOffset" : 968
        },
        {
            "buffer" : 0,
            "byteLength" : 48,
            "byteOffset" : 980
        },
        {
            "buffer" : 0,
            "byteLength" : 48,
            "byteOffset" : 1028
        },
        {
            "buffer" : 0,
            "byteLength" : 32,
            "byteOffset" : 1076
        },
        {
            "buffer" : 0,
            "byteLength" : 48,
            "byteOffset" : 1108
        },
        {
            "buffer" : 0,
            "byteLength" : 48,
            "byteOffset" : 1156
        },
        {
            "buffer" : 0,
            "byteLength" : 32,
            "byteOffset" : 1204
        },
        {
            "buffer" : 0,
            "byteLength" : 48,
            "byteOffset" : 1236
        },
        {
            "buffer" : 0,
            "byteLength" : 48,
            "byteOffset" : 1284
        },
        {
            "buffer" : 0,
            "byteLength" : 32,
            "byteOffset" : 1332
        },
        {
            "buffer" : 0,
            "byteLength" : 48,
            "byteOffset" : 1364
        },
        {
            "buffer" : 0,
            "byteLength" : 48,
            "byteOffset" : 1412
        },
        {
            "buffer" : 0,
            "byteLength" : 32,
            "byteOffset" : 1460
        },
        {
            "buffer" : 0,
            "byteLength" : 48,
            "byteOffset" : 1492
        },
        {
            "buffer" : 0,
            "byteLength" : 48,
            "byteOffset" : 1540
        },
        {
            "buffer" : 0,
            "byteLength" : 32,
            "byteOffset" : 1588
        },
        {
            "buffer" : 0,
            "byteLength" : 48,
            "byteOffset" : 1620
        },
        {
            "buffer" : 0,
            "byteLength" : 48,
            "byteOffset" : 1668
        },
        {
            "buffer" : 0,
            "byteLength" : 32,
            "byteOffset" : 1716
        },
        {
            "buffer" : 0,
            "byteLength" : 48,
            "byteOffset" : 1748
        },
        {
            "buffer" : 0,
            "byteLength" : 48,
            "byteOffset" : 1796
        },
        {
            "buffer" : 0,
            "byteLength" : 32,
            "byteOffset" : 1844
        },
        {
            "buffer" : 0,
            "byteLength" : 48,
            "byteOffset" : 1876
        },
        {
            "buffer" : 0,
            "byteLength" : 48,
            "byteOffset" : 1924
        },
        {
            "buffer" : 0,
            "byteLength" : 32,
            "byteOffset" : 1972
        },
        {
            "buffer" : 0,
            "byteLength" : 48,
            "byteOffset" : 2004
        },
        {
            "buffer" : 0,
            "byteLength" : 48,
            "byteOffset" : 2052
        },
        {
            "buffer" : 0,
            "byteLength" : 32,
            "byteOffset" : 2100
        },
        {
            "buffer" : 0,
            "byteLength" : 48,
            "byteOffset" : 2132
        },
        {
            "buffer" : 0,
            "byteLength" : 48,
            "byteOffset" : 2180
        },
        {
            "buffer" : 0,
            "byteLength" : 32,
            "byteOffset" : 2228
        },
        {
            "buffer" : 0,
            "byteLength" : 48,
            "byteOffset" : 2260
        },
        {
            "buffer" : 0,
            "byteLength" : 48,
            "byteOffset" : 2308
        },
        {
            "buffer" : 0,
            "byteLength" : 32,
            "byteOffset" : 2356
        }
    ],
    "buffers" : [
        {
            "byteLength" : 2388,
            "uri" : "data:application/octet-stream;base64,"
        }
    ]
}
